<svg id="Layer_1" data-name="Layer 1" xmlns="http://www.w3.org/2000/svg" viewBox="0 0 100 100"><defs><style>.cls-1{fill:#fff;}.cls-2{fill:#231f20;}.cls-3{fill:#0fef6a;}</style></defs><path class="cls-1" d="M69.47,36.4V36a4,4,0,0,0-8,0v.44c-.42,0-.77.49-.77,1.09s.35,1.1.77,1.1h0a4,4,0,0,0,8,0h0c.42,0,.77-.49.77-1.1S69.89,36.4,69.47,36.4Z"/><path class="cls-2" d="M65.46,42.32a4.28,4.28,0,0,1-4.21-3.49,1.29,1.29,0,0,1-.84-1.34,1.32,1.32,0,0,1,.77-1.31V36a4.28,4.28,0,0,1,8.56,0v.22a1.33,1.33,0,0,1,.77,1.31,1.3,1.3,0,0,1-.85,1.34A4.28,4.28,0,0,1,65.46,42.32Zm-4-4a.27.27,0,0,1,.27.23,3.74,3.74,0,0,0,7.42,0,.26.26,0,0,1,.28-.23h0c.27,0,.5-.39.5-.83s-.23-.82-.5-.82a.27.27,0,0,1-.27-.27V36a3.75,3.75,0,0,0-7.49,0v.44a.27.27,0,0,1-.27.27c-.27,0-.5.39-.5.82s.23.83.5.83h0Z"/><path class="cls-3" d="M74.18,46.7a3,3,0,0,0-2.26-2.39L67.25,43.2V41.65a4,4,0,0,1-3.59,0V43.2L59,44.31a3,3,0,0,0-2.27,2.39l-.66,3.76H74.84Z"/><path class="cls-2" d="M74.84,50.73H56.07a.28.28,0,0,1-.21-.1.27.27,0,0,1-.06-.21l.67-3.77v0a3.27,3.27,0,0,1,2.47-2.58L63.39,43V41.65a.26.26,0,0,1,.13-.23.27.27,0,0,1,.26,0,3.74,3.74,0,0,0,1.68.4,3.7,3.7,0,0,0,1.67-.4.27.27,0,0,1,.39.24V43L72,44.05a3.25,3.25,0,0,1,2.47,2.58v0l.66,3.77a.27.27,0,0,1-.06.21A.28.28,0,0,1,74.84,50.73ZM56.39,50.2H74.53l-.61-3.45a2.7,2.7,0,0,0-2-2.17h0l-4.66-1.11a.27.27,0,0,1-.2-.26V42.06a4.41,4.41,0,0,1-1.53.28,4.12,4.12,0,0,1-1.53-.28V43.2a.28.28,0,0,1-.21.26l-4.66,1.11h0a2.7,2.7,0,0,0-2,2.17Z"/><polygon class="cls-3" points="63.58 43.13 61.82 43.55 63.85 46.03 65.34 44.21 63.58 43.13"/><path class="cls-2" d="M63.85,46.3a.26.26,0,0,1-.2-.1l-2-2.48a.28.28,0,0,1,0-.25.29.29,0,0,1,.19-.18l1.76-.42a.28.28,0,0,1,.2,0L65.48,44a.23.23,0,0,1,.12.18.23.23,0,0,1,0,.21L64.06,46.2a.28.28,0,0,1-.21.1ZM62.3,43.71l1.55,1.9,1.09-1.33-1.41-.86Z"/><polygon class="cls-3" points="67.34 43.15 69.09 43.57 67.07 46.03 65.34 44.21 67.34 43.15"/><path class="cls-2" d="M67.07,46.3a.25.25,0,0,1-.19-.09L65.15,44.4a.25.25,0,0,1-.07-.23.25.25,0,0,1,.14-.19l2-1.07a.22.22,0,0,1,.18,0l1.75.42a.27.27,0,0,1,.19.17.27.27,0,0,1,0,.26l-2,2.46a.3.3,0,0,1-.2.1Zm-1.29-2,1.27,1.35,1.56-1.9-1.23-.3Z"/><polygon class="cls-1" points="65.98 31.5 65.8 29.27 65.46 29.27 65.11 29.27 64.93 31.5 65.98 31.5"/><path class="cls-2" d="M66.27,31.77H64.64L64.87,29h1.18Zm-1-.54h.47l-.14-1.7h-.19Z"/><path class="cls-3" d="M70,35.16a5.13,5.13,0,0,0-1.83-4,4.3,4.3,0,0,0-1-.6l-.1-.65a4,4,0,0,0-1.3-.37L66,31.5h-1l.16-1.94a3.48,3.48,0,0,0-1.31.38l-.11.65a4.8,4.8,0,0,0-2.51,2.82,5.22,5.22,0,0,0-.29,1.75H70"/><path class="cls-2" d="M70.31,35.43H60.6v-.27a5.43,5.43,0,0,1,.31-1.84,5.14,5.14,0,0,1,2.52-2.92l.11-.63.11-.06a3.29,3.29,0,0,1,1.41-.41l.32,0-.16,2h.47l-.16-2,.32,0a4.56,4.56,0,0,1,1.39.38l.13.06.1.65a5,5,0,0,1,.91.58,5.43,5.43,0,0,1,1.93,4.18Zm-9.17-.54h8.63A4.84,4.84,0,0,0,68,31.4a3.74,3.74,0,0,0-.92-.57L67,30.77l-.1-.65a4.29,4.29,0,0,0-.77-.24l.15,1.89H64.64l.15-1.9a3.74,3.74,0,0,0-.77.24l-.12.66-.12.06a4.58,4.58,0,0,0-2.37,2.67A5.35,5.35,0,0,0,61.14,34.89Z"/><rect class="cls-2" x="67.04" y="29.92" width="0.53" height="2.29" transform="translate(-3.97 10.68) rotate(-8.81)"/><rect class="cls-2" x="62.43" y="30.8" width="2.3" height="0.53" transform="translate(21.81 88.19) rotate(-79.86)"/><path class="cls-2" d="M64.81,34.52H61.69v-.26a3.49,3.49,0,0,1,.46-1.58l.46.26a4.12,4.12,0,0,0-.38,1h2.59Z"/><path class="cls-1" d="M70.1,35.16H60.82s-.42,0-.41.66H70.5C70.51,35.18,70.1,35.16,70.1,35.16Z"/><path class="cls-2" d="M70.77,36.08H60.14v-.26c0-.71.44-.92.67-.93h9.3c.23,0,.67.22.66.93Zm-10-.53H70.2a.18.18,0,0,0-.12-.12H60.84Q60.77,35.43,60.72,35.55Z"/><path class="cls-1" d="M49.53,36.4V36a4,4,0,0,0-8,0v.44c-.42,0-.77.49-.77,1.09s.35,1.1.77,1.1h0a4,4,0,0,0,8,0h0c.42,0,.77-.49.77-1.1S50,36.4,49.53,36.4Z"/><path class="cls-2" d="M45.52,42.32a4.28,4.28,0,0,1-4.21-3.49,1.29,1.29,0,0,1-.84-1.34,1.32,1.32,0,0,1,.77-1.31V36a4.28,4.28,0,1,1,8.56,0v.22a1.33,1.33,0,0,1,.77,1.31,1.3,1.3,0,0,1-.85,1.34A4.28,4.28,0,0,1,45.52,42.32Zm-4-4a.25.25,0,0,1,.26.23,3.75,3.75,0,0,0,7.43,0,.26.26,0,0,1,.28-.23h0c.27,0,.5-.39.5-.83s-.23-.82-.5-.82a.27.27,0,0,1-.27-.27V36a3.75,3.75,0,0,0-7.49,0v.44a.27.27,0,0,1-.27.27c-.27,0-.5.39-.5.82s.23.83.5.83h0Z"/><path class="cls-3" d="M54.24,46.7A3,3,0,0,0,52,44.31L47.31,43.2V41.65a4,4,0,0,1-3.59,0V43.2l-4.66,1.11a3,3,0,0,0-2.27,2.39l-.66,3.76H54.9Z"/><path class="cls-2" d="M54.9,50.73H36.13a.28.28,0,0,1-.21-.1.27.27,0,0,1-.06-.21l.66-3.77v0A3.27,3.27,0,0,1,39,44.05L43.45,43V41.65a.26.26,0,0,1,.13-.23.27.27,0,0,1,.26,0,3.74,3.74,0,0,0,1.68.4,3.7,3.7,0,0,0,1.67-.4.27.27,0,0,1,.39.24V43L52,44.05a3.25,3.25,0,0,1,2.47,2.58v0l.66,3.77a.27.27,0,0,1-.06.21A.28.28,0,0,1,54.9,50.73ZM36.45,50.2H54.59L54,46.75a2.7,2.7,0,0,0-2-2.17h0l-4.66-1.11a.27.27,0,0,1-.2-.26V42.06a4.41,4.41,0,0,1-1.53.28A4.21,4.21,0,0,1,44,42.06V43.2a.27.27,0,0,1-.2.26l-4.66,1.11h0a2.7,2.7,0,0,0-2,2.17Z"/><polygon class="cls-3" points="43.64 43.13 41.88 43.55 43.91 46.03 45.4 44.21 43.64 43.13"/><path class="cls-2" d="M43.91,46.3a.26.26,0,0,1-.2-.1l-2-2.48a.28.28,0,0,1,0-.25.29.29,0,0,1,.19-.18l1.76-.42a.28.28,0,0,1,.2,0L45.54,44a.23.23,0,0,1,.12.18.23.23,0,0,1,0,.21L44.12,46.2a.28.28,0,0,1-.21.1Zm-1.55-2.59,1.55,1.9L45,44.28l-1.41-.86Z"/><polygon class="cls-3" points="47.4 43.15 49.15 43.57 47.13 46.03 45.4 44.21 47.4 43.15"/><path class="cls-2" d="M47.13,46.3a.25.25,0,0,1-.19-.09L45.21,44.4a.25.25,0,0,1-.07-.23.26.26,0,0,1,.13-.19l2-1.07a.22.22,0,0,1,.18,0l1.75.42a.27.27,0,0,1,.19.17.27.27,0,0,1,0,.26l-2,2.46a.27.27,0,0,1-.19.1Zm-1.29-2,1.27,1.35,1.56-1.9-1.23-.3Z"/><polygon class="cls-1" points="46.04 31.5 45.86 29.27 45.52 29.27 45.17 29.27 44.99 31.5 46.04 31.5"/><path class="cls-2" d="M46.33,31.77H44.7L44.93,29h1.18Zm-1-.54h.47l-.14-1.7h-.19Z"/><path class="cls-3" d="M50.1,35.16a5.13,5.13,0,0,0-1.83-4,4.3,4.3,0,0,0-1-.6l-.1-.65a4,4,0,0,0-1.3-.37L46,31.5H45l.16-1.94a3.48,3.48,0,0,0-1.31.38l-.11.65a4.8,4.8,0,0,0-2.51,2.82,5.22,5.22,0,0,0-.29,1.75H50.1"/><path class="cls-2" d="M50.37,35.43H40.66v-.27A5.43,5.43,0,0,1,41,33.32a5.14,5.14,0,0,1,2.52-2.92l.11-.63.11-.06a3.29,3.29,0,0,1,1.41-.41l.32,0-.16,2h.47l-.16-2,.32,0a4.56,4.56,0,0,1,1.39.38l.13.06.1.65a5,5,0,0,1,.91.58,5.43,5.43,0,0,1,1.93,4.18Zm-9.17-.54h8.63A4.84,4.84,0,0,0,48.1,31.4a3.74,3.74,0,0,0-.92-.57l-.13-.06-.1-.65a4.29,4.29,0,0,0-.77-.24l.15,1.89H44.7l.15-1.9a3.74,3.74,0,0,0-.77.24l-.12.66-.12.06a4.58,4.58,0,0,0-2.37,2.67A5.35,5.35,0,0,0,41.2,34.89Z"/><rect class="cls-2" x="47.1" y="29.92" width="0.53" height="2.29" transform="translate(-4.2 7.62) rotate(-8.81)"/><rect class="cls-2" x="42.49" y="30.8" width="2.3" height="0.53" transform="translate(5.38 68.56) rotate(-79.86)"/><path class="cls-2" d="M44.87,34.52H41.75v-.26a3.49,3.49,0,0,1,.46-1.58l.46.26a4.12,4.12,0,0,0-.38,1h2.59Z"/><path class="cls-1" d="M50.16,35.16H40.88s-.42,0-.41.66H50.56C50.57,35.18,50.16,35.16,50.16,35.16Z"/><path class="cls-2" d="M50.83,36.08H40.2v-.26c0-.71.44-.92.67-.93h9.3c.23,0,.67.22.66.93Zm-10-.53h9.48a.18.18,0,0,0-.12-.12H40.9S40.81,35.47,40.78,35.55Z"/><path class="cls-1" d="M49.53,57.06v-.44a4,4,0,1,0-8,0v.44c-.42,0-.77.49-.77,1.09s.35,1.09.77,1.09h0a4,4,0,0,0,8,0h0c.42,0,.77-.49.77-1.09S50,57.06,49.53,57.06Z"/><path class="cls-2" d="M45.52,63a4.28,4.28,0,0,1-4.21-3.49,1.28,1.28,0,0,1-.84-1.33,1.33,1.33,0,0,1,.77-1.32v-.21a4.28,4.28,0,0,1,8.56,0v.21a1.35,1.35,0,0,1,.77,1.32,1.29,1.29,0,0,1-.85,1.33A4.28,4.28,0,0,1,45.52,63Zm-4-4a.26.26,0,0,1,.26.23,3.75,3.75,0,0,0,7.43,0,.26.26,0,0,1,.28-.23h0c.27,0,.5-.38.5-.82s-.23-.83-.5-.83a.27.27,0,0,1-.27-.26v-.44a3.75,3.75,0,1,0-7.49,0v.44a.27.27,0,0,1-.27.26c-.27,0-.5.39-.5.83s.23.82.5.82h0Z"/><path class="cls-3" d="M54.24,67.35A3,3,0,0,0,52,65l-4.67-1.12V62.3a4,4,0,0,1-3.59,0v1.55L39.06,65a3,3,0,0,0-2.27,2.38l-.66,3.77H54.9Z"/><path class="cls-2" d="M54.9,71.38H36.13a.27.27,0,0,1-.21-.09.29.29,0,0,1-.06-.22l.66-3.77v0A3.27,3.27,0,0,1,39,64.7l4.45-1.06V62.3a.28.28,0,0,1,.13-.23.27.27,0,0,1,.26,0,3.74,3.74,0,0,0,1.68.4,3.7,3.7,0,0,0,1.67-.4.27.27,0,0,1,.26,0,.28.28,0,0,1,.13.23v1.34L52,64.7a3.25,3.25,0,0,1,2.47,2.58v0l.66,3.77a.29.29,0,0,1-.06.22A.27.27,0,0,1,54.9,71.38Zm-18.45-.53H54.59L54,67.41a2.73,2.73,0,0,0-2-2.18h0l-4.66-1.12a.26.26,0,0,1-.2-.26V62.71a4.35,4.35,0,0,1-3.07,0v1.14a.26.26,0,0,1-.2.26l-4.66,1.12h0a2.73,2.73,0,0,0-2,2.18Z"/><polygon class="cls-3" points="43.64 63.79 41.88 64.21 43.91 66.68 45.4 64.87 43.64 63.79"/><path class="cls-2" d="M43.91,67a.26.26,0,0,1-.2-.1l-2-2.47a.3.3,0,0,1,0-.26.25.25,0,0,1,.19-.17l1.76-.42a.24.24,0,0,1,.2,0l1.76,1.08a.28.28,0,0,1,.07.4l-1.49,1.81a.28.28,0,0,1-.21.1Zm-1.55-2.58,1.55,1.89L45,64.93l-1.41-.86Z"/><polygon class="cls-3" points="47.4 63.8 49.15 64.22 47.13 66.68 45.4 64.87 47.4 63.8"/><path class="cls-2" d="M47.13,67a.27.27,0,0,1-.19-.08l-1.73-1.82a.24.24,0,0,1-.07-.23.26.26,0,0,1,.13-.19l2-1.06a.28.28,0,0,1,.18,0l1.75.42a.27.27,0,0,1,.19.18.25.25,0,0,1,0,.25l-2,2.46a.24.24,0,0,1-.19.1Zm-1.29-2,1.27,1.34,1.56-1.9-1.23-.29Z"/><polygon class="cls-1" points="46.04 52.15 45.86 49.92 45.52 49.92 45.17 49.92 44.99 52.15 46.04 52.15"/><path class="cls-2" d="M46.33,52.42H44.7l.23-2.77h1.18Zm-1-.53h.47l-.14-1.7h-.19Z"/><path class="cls-3" d="M50.1,55.81a5.13,5.13,0,0,0-1.83-4,4.68,4.68,0,0,0-1-.6l-.1-.65a4.31,4.31,0,0,0-1.3-.37L46,52.15H45l.16-1.93a3.38,3.38,0,0,0-1.31.37l-.11.65a4.83,4.83,0,0,0-2.51,2.82,5.27,5.27,0,0,0-.29,1.75H50.1"/><path class="cls-2" d="M50.37,56.08H40.66v-.27A5.47,5.47,0,0,1,41,54a5.12,5.12,0,0,1,2.52-2.91l.11-.64.11-.06A3.65,3.65,0,0,1,45.12,50l.32,0-.16,2h.47l-.16-2,.32,0a4.31,4.31,0,0,1,1.39.39l.13.06.1.65a4.53,4.53,0,0,1,.91.58,5.39,5.39,0,0,1,1.93,4.17Zm-9.17-.53h8.63a4.84,4.84,0,0,0-1.73-3.5,3.74,3.74,0,0,0-.92-.57l-.13-.06-.1-.65a4.25,4.25,0,0,0-.77-.23l.15,1.88H44.7l.15-1.89a2.8,2.8,0,0,0-.77.24l-.12.65-.12.06a4.58,4.58,0,0,0-2.37,2.67A5.43,5.43,0,0,0,41.2,55.55Z"/><rect class="cls-2" x="47.1" y="50.58" width="0.53" height="2.29" transform="translate(-7.36 7.87) rotate(-8.81)"/><rect class="cls-2" x="42.49" y="51.46" width="2.3" height="0.53" transform="translate(-14.94 85.6) rotate(-79.88)"/><path class="cls-2" d="M44.87,55.17H41.75v-.25a3.54,3.54,0,0,1,.46-1.59l.46.26a4.27,4.27,0,0,0-.38,1h2.59Z"/><path class="cls-1" d="M50.16,55.81H40.88s-.42,0-.41.66H50.56C50.57,55.83,50.16,55.81,50.16,55.81Z"/><path class="cls-2" d="M50.83,56.74H40.2v-.27c0-.71.44-.92.67-.92h9.3c.23,0,.67.21.66.92Zm-10-.54h9.48a.2.2,0,0,0-.12-.12H40.9A.18.18,0,0,0,40.78,56.2Z"/><path class="cls-1" d="M69.47,57.06v-.44a4,4,0,1,0-8,0v.44c-.42,0-.77.49-.77,1.09s.35,1.09.77,1.09h0a4,4,0,0,0,8,0h0c.42,0,.77-.49.77-1.09S69.89,57.06,69.47,57.06Z"/><path class="cls-2" d="M65.46,63a4.28,4.28,0,0,1-4.21-3.49,1.28,1.28,0,0,1-.84-1.33,1.33,1.33,0,0,1,.77-1.32v-.21a4.28,4.28,0,0,1,8.56,0v.21a1.35,1.35,0,0,1,.77,1.32,1.29,1.29,0,0,1-.85,1.33A4.28,4.28,0,0,1,65.46,63Zm-4-4a.28.28,0,0,1,.27.23,3.74,3.74,0,0,0,7.42,0,.26.26,0,0,1,.28-.23h0c.27,0,.5-.38.5-.82s-.23-.83-.5-.83a.27.27,0,0,1-.27-.26v-.44a3.75,3.75,0,1,0-7.49,0v.44a.27.27,0,0,1-.27.26c-.27,0-.5.39-.5.83s.23.82.5.82h0Z"/><path class="cls-3" d="M74.18,67.35A3,3,0,0,0,71.92,65l-4.67-1.12V62.3a4,4,0,0,1-3.59,0v1.55L59,65a3,3,0,0,0-2.27,2.38l-.66,3.77H74.84Z"/><path class="cls-2" d="M74.84,71.38H56.07a.27.27,0,0,1-.21-.09.29.29,0,0,1-.06-.22l.67-3.77v0a3.27,3.27,0,0,1,2.47-2.58l4.45-1.06V62.3a.28.28,0,0,1,.13-.23.27.27,0,0,1,.26,0,3.74,3.74,0,0,0,1.68.4,3.7,3.7,0,0,0,1.67-.4.27.27,0,0,1,.26,0,.28.28,0,0,1,.13.23v1.34L72,64.7a3.25,3.25,0,0,1,2.47,2.58v0l.66,3.77a.29.29,0,0,1-.06.22A.27.27,0,0,1,74.84,71.38Zm-18.45-.53H74.53l-.61-3.44a2.73,2.73,0,0,0-2-2.18h0l-4.66-1.12a.26.26,0,0,1-.2-.26V62.71a4.19,4.19,0,0,1-1.53.28,4.12,4.12,0,0,1-1.53-.28v1.14a.27.27,0,0,1-.21.26l-4.66,1.12h0a2.73,2.73,0,0,0-2,2.18Z"/><polygon class="cls-3" points="63.58 63.79 61.82 64.21 63.85 66.68 65.34 64.87 63.58 63.79"/><path class="cls-2" d="M63.85,67a.26.26,0,0,1-.2-.1l-2-2.47a.3.3,0,0,1,0-.26.25.25,0,0,1,.19-.17l1.76-.42a.24.24,0,0,1,.2,0l1.76,1.08a.28.28,0,0,1,.07.4l-1.49,1.81a.28.28,0,0,1-.21.1ZM62.3,64.37l1.55,1.89,1.09-1.33-1.41-.86Z"/><polygon class="cls-3" points="67.34 63.8 69.09 64.22 67.07 66.68 65.34 64.87 67.34 63.8"/><path class="cls-2" d="M67.07,67a.27.27,0,0,1-.19-.08l-1.73-1.82a.24.24,0,0,1-.07-.23.25.25,0,0,1,.14-.19l2-1.06a.28.28,0,0,1,.18,0l1.75.42a.27.27,0,0,1,.19.18.25.25,0,0,1,0,.25l-2,2.46a.26.26,0,0,1-.2.1Zm-1.29-2,1.27,1.34,1.56-1.9-1.23-.29Z"/><polygon class="cls-1" points="65.98 52.15 65.8 49.92 65.46 49.92 65.11 49.92 64.93 52.15 65.98 52.15"/><path class="cls-2" d="M66.27,52.42H64.64l.23-2.77h1.18Zm-1-.53h.47l-.14-1.7h-.19Z"/><path class="cls-3" d="M70,55.81a5.13,5.13,0,0,0-1.83-4,4.68,4.68,0,0,0-1-.6l-.1-.65a4.31,4.31,0,0,0-1.3-.37L66,52.15h-1l.16-1.93a3.38,3.38,0,0,0-1.31.37l-.11.65a4.83,4.83,0,0,0-2.51,2.82,5.27,5.27,0,0,0-.29,1.75H70"/><path class="cls-2" d="M70.31,56.08H60.6v-.27A5.47,5.47,0,0,1,60.91,54a5.12,5.12,0,0,1,2.52-2.91l.11-.64.11-.06A3.65,3.65,0,0,1,65.06,50l.32,0-.16,2h.47l-.16-2,.32,0a4.31,4.31,0,0,1,1.39.39l.13.06.1.65a4.53,4.53,0,0,1,.91.58,5.39,5.39,0,0,1,1.93,4.17Zm-9.17-.53h8.63A4.84,4.84,0,0,0,68,52.05a3.74,3.74,0,0,0-.92-.57L67,51.42l-.1-.65a4.25,4.25,0,0,0-.77-.23l.15,1.88H64.64l.15-1.89a2.8,2.8,0,0,0-.77.24l-.12.65-.12.06a4.58,4.58,0,0,0-2.37,2.67A5.43,5.43,0,0,0,61.14,55.55Z"/><rect class="cls-2" x="67.04" y="50.58" width="0.53" height="2.29" transform="translate(-7.13 10.92) rotate(-8.81)"/><rect class="cls-2" x="62.43" y="51.46" width="2.3" height="0.53" transform="translate(1.49 105.23) rotate(-79.88)"/><path class="cls-2" d="M64.81,55.17H61.69v-.25a3.54,3.54,0,0,1,.46-1.59l.46.26a4.27,4.27,0,0,0-.38,1h2.59Z"/><path class="cls-1" d="M70.1,55.81H60.82s-.42,0-.41.66H70.5C70.51,55.83,70.1,55.81,70.1,55.81Z"/><path class="cls-2" d="M70.77,56.74H60.14v-.27c0-.71.44-.92.67-.92h9.3c.23,0,.67.21.66.92Zm-10-.54H70.2a.2.2,0,0,0-.12-.12H60.84A.18.18,0,0,0,60.72,56.2Z"/></svg>