<svg id="Layer_1" data-name="Layer 1" xmlns="http://www.w3.org/2000/svg" viewBox="0 0 100 100"><defs><style>.cls-1{fill:#231f20;}</style></defs><path class="cls-1" d="M67.33,37.17H59.05a.6.6,0,0,1-.6-.6V28.48a.6.6,0,0,1,.37-.55.58.58,0,0,1,.65.12l8.28,8.09a.62.62,0,0,1,.13.66A.6.6,0,0,1,67.33,37.17ZM59.65,36h6.21l-6.21-6.08Z"/><path class="cls-1" d="M66.56,60.14H56a.6.6,0,0,1,0-1.2H66.56a.17.17,0,0,0,.17-.15v-22l-7.92-7.75h-14a.17.17,0,0,0-.17.16v10.6a.6.6,0,0,1-1.2,0V29.23a1.36,1.36,0,0,1,1.37-1.35H59.05a.63.63,0,0,1,.42.17l8.28,8.09a.63.63,0,0,1,.17.43V58.79A1.36,1.36,0,0,1,66.56,60.14Z"/><path class="cls-1" d="M56,48.53H47.69a.6.6,0,0,1-.6-.6v-8.1a.6.6,0,0,1,1-.42l8.28,8.09a.62.62,0,0,1,.13.66A.6.6,0,0,1,56,48.53Zm-7.68-1.2h6.22l-6.22-6.08Z"/><path class="cls-1" d="M55.2,71.49H33.44a1.35,1.35,0,0,1-1.36-1.35V40.59a1.35,1.35,0,0,1,1.36-1.35H47.69a.59.59,0,0,1,.42.17l8.28,8.09a.64.64,0,0,1,.18.43V70.14A1.36,1.36,0,0,1,55.2,71.49ZM33.44,40.43a.17.17,0,0,0-.17.16V70.14a.17.17,0,0,0,.17.16H55.2a.17.17,0,0,0,.17-.16v-22l-7.92-7.75Z"/><path class="cls-1" d="M52.67,66.25H36a.58.58,0,0,1-.59-.59.59.59,0,0,1,.59-.6h16.7a.6.6,0,0,1,.6.6A.59.59,0,0,1,52.67,66.25Z"/><path class="cls-1" d="M52.67,62.82H36a.58.58,0,0,1-.59-.59.59.59,0,0,1,.59-.6h16.7a.6.6,0,0,1,.6.6A.59.59,0,0,1,52.67,62.82Z"/><path class="cls-1" d="M52.67,59.39H36a.58.58,0,0,1-.59-.59.59.59,0,0,1,.59-.6h16.7a.6.6,0,0,1,.6.6A.59.59,0,0,1,52.67,59.39Z"/><path class="cls-1" d="M52.67,56H36a.58.58,0,0,1-.59-.59.59.59,0,0,1,.59-.6h16.7a.6.6,0,0,1,.6.6A.59.59,0,0,1,52.67,56Z"/><path class="cls-1" d="M52.67,52.53H36a.58.58,0,0,1-.59-.59.59.59,0,0,1,.59-.6h16.7a.6.6,0,0,1,.6.6A.59.59,0,0,1,52.67,52.53Z"/><path class="cls-1" d="M45.75,49.1H36a.58.58,0,0,1-.59-.59.59.59,0,0,1,.59-.6h9.78a.59.59,0,0,1,.59.6A.58.58,0,0,1,45.75,49.1Z"/><path class="cls-1" d="M45.36,45.67H36a.58.58,0,0,1-.59-.59.59.59,0,0,1,.59-.6h9.39a.6.6,0,0,1,.6.6A.59.59,0,0,1,45.36,45.67Z"/><path class="cls-1" d="M58.87,70.4a.59.59,0,0,1-.59-.6.58.58,0,0,1,.59-.59A7.14,7.14,0,0,0,66,62.08a.6.6,0,0,1,.6-.6.59.59,0,0,1,.59.6A8.33,8.33,0,0,1,58.87,70.4Z"/><path class="cls-1" d="M60,72.5a.63.63,0,0,1-.43-.17l-2.18-2.19a.6.6,0,0,1,0-.84l2.18-2.19a.6.6,0,1,1,.85.85l-1.77,1.76,1.77,1.76a.61.61,0,0,1,0,.85A.63.63,0,0,1,60,72.5Z"/><path class="cls-1" d="M33,38.52a.6.6,0,0,1-.6-.6,8.33,8.33,0,0,1,8.32-8.32.6.6,0,0,1,.6.6.59.59,0,0,1-.6.59,7.14,7.14,0,0,0-7.13,7.13A.59.59,0,0,1,33,38.52Z"/><path class="cls-1" d="M39.65,33.06a.61.61,0,0,1-.42-.17.59.59,0,0,1,0-.85L41,30.28l-1.76-1.76a.6.6,0,1,1,.84-.85l2.18,2.19a.58.58,0,0,1,0,.84l-2.18,2.19A.63.63,0,0,1,39.65,33.06Z"/></svg>