<svg id="Layer_1" data-name="Layer 1" xmlns="http://www.w3.org/2000/svg" viewBox="0 0 100 100"><defs><style>.cls-1{fill:#808285;}</style></defs><path class="cls-1" d="M68.26,66.53H38.56a.46.46,0,0,1-.45-.46V45.48a.46.46,0,1,1,.91,0V65.62H67.8V45.48a.47.47,0,0,1,.46-.46.46.46,0,0,1,.45.46V66.07A.46.46,0,0,1,68.26,66.53Z"/><path class="cls-1" d="M53.41,58.8a.45.45,0,0,1-.3-.11L38.27,45.82a.45.45,0,1,1,.59-.69L53.41,57.75,68,45.13a.46.46,0,0,1,.64,0,.45.45,0,0,1,0,.64L53.71,58.69A.43.43,0,0,1,53.41,58.8Z"/><path class="cls-1" d="M68.26,45.93a.48.48,0,0,1-.3-.11L53.41,33.21,38.86,45.82a.45.45,0,1,1-.59-.69L53.11,32.26a.46.46,0,0,1,.6,0L68.56,45.13a.45.45,0,0,1,0,.64A.43.43,0,0,1,68.26,45.93Z"/><path class="cls-1" d="M38.56,66.53a.44.44,0,0,1-.34-.16.46.46,0,0,1,.05-.64l11.87-10.3a.47.47,0,0,1,.65,0,.46.46,0,0,1,0,.64L38.86,66.42A.46.46,0,0,1,38.56,66.53Z"/><path class="cls-1" d="M68.26,66.53a.48.48,0,0,1-.3-.11L56.08,56.12a.45.45,0,0,1,0-.64.46.46,0,0,1,.64,0l11.88,10.3a.45.45,0,0,1,0,.64A.43.43,0,0,1,68.26,66.53Z"/><path class="cls-1" d="M63.44,50.11a.46.46,0,0,1-.45-.46V44H43.84v5.69a.47.47,0,0,1-.46.46.46.46,0,0,1-.45-.46V43.5a.45.45,0,0,1,.45-.45H63.44a.46.46,0,0,1,.46.45v6.15A.47.47,0,0,1,63.44,50.11Z"/></svg>