<svg id="Layer_1" data-name="Layer 1" xmlns="http://www.w3.org/2000/svg" viewBox="0 0 100 100"><defs><style>.cls-1{fill:#231f20;}</style></defs><path class="cls-1" d="M74.32,36l-1.91-.47a.94.94,0,0,0-.3,0A54,54,0,0,1,61.2,34.23a32.33,32.33,0,0,0-5.91-.81A7.52,7.52,0,0,0,50,35.21a7.52,7.52,0,0,0-5.29-1.79,32.33,32.33,0,0,0-5.91.81A54,54,0,0,1,27.89,35.5a.94.94,0,0,0-.3,0L25.68,36a.88.88,0,0,0-.57.75L22.5,64.63a.89.89,0,0,0,.8,1c.08,0,2.13.2,5.4.2,2.08,0,4.19-.08,6.26-.24l2.7-.23c2-.19,3.94-.36,5.6-.36,2.55,0,4.14.43,5,1.34a.88.88,0,0,0,.65.28h2.2a.88.88,0,0,0,.65-.28c.85-.91,2.44-1.34,5-1.34,1.66,0,3.57.17,5.6.36l2.7.23c2.07.16,4.18.24,6.26.24,3.27,0,5.32-.2,5.4-.2a.89.89,0,0,0,.8-1L74.9,36.77A.91.91,0,0,0,74.32,36ZM28.44,64.78c-.84,0-1.54,0-2-.07l-.76,0,.76,0h2c.84,0,1.81-.06,2.85-.14s2.15-.21,3.26-.37,2.2-.36,3.22-.58,2-.4,2.82-.52a14.25,14.25,0,0,1,2-.15h0a16.54,16.54,0,0,0-2,.23c-.83.13-1.78.35-2.8.57s-2.13.45-3.23.61-2.23.27-3.27.35S29.28,64.78,28.44,64.78Zm3.07-.88,1-.06.74,0h.29l-.28.05c-.18,0-.43.08-.74.11s-.66.09-1,.12-.79.07-1.2.09l-1.21,0c-.38,0-.74,0-1.05,0l-.74,0-.29,0,.29,0,.74,0,1.05,0,1.2-.06Zm-.23-.42.57-.11c.36-.07.87-.17,1.49-.27s1.34-.24,2.12-.36l2.43-.39L40.32,62c.78-.12,1.51-.22,2.14-.28a6.69,6.69,0,0,1,1.52,0l.42.07.15,0-.15,0a3,3,0,0,0-.42,0,8.34,8.34,0,0,0-1.51.06c-.62.08-1.34.23-2.12.35l-2.43.38-2.43.37-2.13.29-1.51.19Zm16.81,2a2.65,2.65,0,0,0-.52-.36,4.47,4.47,0,0,0-.89-.38,7.75,7.75,0,0,0-1.24-.25,18.94,18.94,0,0,0-3.17-.09c-1.16,0-2.4.16-3.64.27L35,65c-1.16.09-2.25.13-3.18.15s-1.71,0-2.26,0l-.85,0,.85,0c.54,0,1.32,0,2.25-.09s2-.12,3.18-.22l3.63-.33c1.24-.11,2.49-.2,3.65-.24a17,17,0,0,1,3.2.16,7.56,7.56,0,0,1,1.24.29,5.47,5.47,0,0,1,.9.42,3.12,3.12,0,0,1,.5.39l.15.16Zm.12-.89-.43-.15-.56-.18c-.41-.13-.9-.24-1.43-.36s-1.1-.19-1.67-.24a16.25,16.25,0,0,0-1.68-.08c-.54,0-1,0-1.48.09l-.58.07-.45.06-.4.07.39-.11.45-.1c.17,0,.36-.07.58-.1a14.46,14.46,0,0,1,1.48-.15c.55,0,1.13,0,1.71,0s1.15.16,1.69.28a11.62,11.62,0,0,1,1.42.42l.56.21.42.19.35.17Zm.68-.81-.38-.19A12,12,0,0,0,47.13,63a13.19,13.19,0,0,0-2-.51,11.82,11.82,0,0,0-2.4-.15,15.46,15.46,0,0,0-2.39.3l-2.07.43c-.6.14-1.11.23-1.46.31l-.56.11.55-.15L38.21,63c.6-.15,1.3-.34,2.06-.49a14.26,14.26,0,0,1,2.42-.33,12.1,12.1,0,0,1,2.43.18,11,11,0,0,1,2.05.57,10.11,10.11,0,0,1,1.36.63,3.93,3.93,0,0,1,.36.21l.13.08Zm2.39.07.13-.08a3.93,3.93,0,0,1,.36-.21,10.11,10.11,0,0,1,1.36-.63,11.18,11.18,0,0,1,2-.57,12.14,12.14,0,0,1,2.44-.18,14.28,14.28,0,0,1,2.41.33c.76.15,1.46.34,2.06.49l1.45.37.55.15-.56-.11c-.35-.08-.86-.17-1.46-.31L60,62.68a15.3,15.3,0,0,0-2.39-.3,11.82,11.82,0,0,0-2.4.15,13.19,13.19,0,0,0-2,.51,12,12,0,0,0-1.38.56l-.37.19Zm16.08-.44c-.34,0-.84-.05-1.43-.13s-1.28-.19-2-.35l-2.28-.5c-.77-.18-1.55-.34-2.28-.45a16.16,16.16,0,0,0-2-.22,11.18,11.18,0,0,0-1.43,0l-.41,0h-.14l.14,0,.4-.06a10.43,10.43,0,0,1,1.44-.09,15.7,15.7,0,0,1,2,.16c.74.1,1.52.26,2.3.42l2.27.53c.72.17,1.4.32,2,.42s1.07.17,1.42.2l.54.06Zm1.44.48L70,64l1.2.06,1,0,.75,0,.28,0-.28,0-.75,0c-.31,0-.66,0-1,0l-1.2,0c-.41,0-.82,0-1.21-.09S68,64,67.74,64s-.56-.08-.74-.11l-.27-.05H67l.74,0Zm-17.08.84.36-.17.41-.19.56-.21a11.81,11.81,0,0,1,1.43-.42,16.81,16.81,0,0,1,1.68-.28c.58,0,1.16-.06,1.71,0a14.46,14.46,0,0,1,1.48.15l.59.1.44.1.39.11-.4-.07-.45-.06-.58-.07c-.43-.06-.94-.07-1.47-.09a16.31,16.31,0,0,0-1.69.08c-.57,0-1.14.14-1.67.24s-1,.23-1.43.36l-.56.18-.43.15Zm18.73.41c-.54,0-1.32,0-2.26,0s-2-.06-3.18-.15l-3.64-.3c-1.24-.12-2.48-.22-3.64-.27a18.94,18.94,0,0,0-3.17.09,7.75,7.75,0,0,0-1.24.25,4.47,4.47,0,0,0-.89.38,2.65,2.65,0,0,0-.52.36,1.28,1.28,0,0,0-.16.15l.15-.16a2.86,2.86,0,0,1,.51-.39,5.55,5.55,0,0,1,2.13-.71,17.83,17.83,0,0,1,3.2-.16c1.16,0,2.41.14,3.65.24l3.63.33c1.16.1,2.25.17,3.18.22s1.71.08,2.25.09l.85,0Zm3.44-.44c-.49,0-1.19.07-2,.07S70,64.77,69,64.7s-2.16-.19-3.27-.35-2.21-.38-3.23-.61-2-.44-2.81-.57a16.32,16.32,0,0,0-2-.23h0a14.25,14.25,0,0,1,2,.15c.83.12,1.8.3,2.82.52s2.12.42,3.22.58,2.22.29,3.26.37,2,.13,2.85.14h2l.77,0ZM76,64l-.62-.22L72.24,36.84l2,26.71q-1.43,0-2.76-.09l1.1-.1.72-.1.25,0-1,0c-.31,0-.68,0-1.11,0L70,63c-.53,0-1.1-.11-1.7-.17l-1.88-.27c-.65-.1-1.32-.21-2-.34l-2.07-.38c-.69-.13-1.39-.26-2.08-.37s-1.38-.23-2-.3a16.45,16.45,0,0,0-2-.12,15.43,15.43,0,0,0-1.75.13,11.3,11.3,0,0,0-1.45.32A7.8,7.8,0,0,0,52,62a6.59,6.59,0,0,0-.63.36l-.21.15.24-.1a6.55,6.55,0,0,1,.68-.21,8.84,8.84,0,0,1,1.08-.22c.17,0,.35,0,.54-.06a6.89,6.89,0,0,0-3.07,1.27l-.62-26-.62,26a7.06,7.06,0,0,0-3.24-1.3c.32,0,.61,0,.88.09a8.46,8.46,0,0,1,1.08.22,6.55,6.55,0,0,1,.68.21l.24.1-.21-.15a6.59,6.59,0,0,0-.63-.36,7.8,7.8,0,0,0-1.07-.41,11.3,11.3,0,0,0-1.45-.32,15.42,15.42,0,0,0-1.74-.13,16.49,16.49,0,0,0-2,.12c-.67.07-1.35.18-2.05.3s-1.39.24-2.08.37l-2.07.38c-.68.13-1.36.24-2,.34l-1.88.27c-.6.06-1.17.13-1.7.17l-1.44.1c-.43,0-.8,0-1.11,0l-1,0,.25,0,.72.1,1,.1c-1,0-2,.09-3.05.1l2-26.72-3.09,27L24,64l1.86-22.65-2,17.72L26,36.85l.37-.13-.45,6.8.64-6.87.53-.19c0,.31-.08.82-.15,1.46-.09,1.08-.22,2.52-.35,4s-.26,2.88-.35,4L26,47.64s.08-.72.21-1.79.26-2.52.42-4,.3-2.87.42-4c.08-.71.14-1.26.18-1.56l.62-.22c7.72,0,12.79-2.08,16.82-2.08S50,36.33,50,36.33s1.27-2.25,5.29-2.25,9.1,2.08,16.82,2.08l.56.2c0,.29.1.85.18,1.58.12,1.08.27,2.52.42,4s.31,2.88.42,4,.21,1.79.21,1.79l-.18-1.8c-.09-1.08-.22-2.52-.35-4s-.26-2.88-.35-4c-.07-.65-.12-1.18-.15-1.49l.53.2L74,43.52l-.45-6.83.43.16,2.24,24L74.09,41.33Z"/><path class="cls-1" d="M69.47,62.49l-1.12-.2L67,62l-1.46-.29L64,61.41l-1.61-.35-1.62-.36c-.53-.12-1.06-.24-1.58-.32-.26,0-.51-.08-.77-.1a6.32,6.32,0,0,0-.74-.06,12.33,12.33,0,0,0-1.36,0,11.1,11.1,0,0,0-1.14.14,8.59,8.59,0,0,0-.86.2,4,4,0,0,0-.53.18,1.16,1.16,0,0,0-.19.08l.2-.06.55-.11c.23,0,.52-.08.86-.1s.71,0,1.12,0,.86,0,1.33.07l.35,0,.37.05a6.69,6.69,0,0,1,.74.12c.51.09,1,.21,1.56.34s1.07.24,1.61.36c1.09.23,2.18.44,3.21.61s2,.31,2.82.41,1.52.16,2,.2.76,0,.76,0l-.75-.11Z"/><path class="cls-1" d="M45.53,60.56a8.59,8.59,0,0,0-.86-.2,11.1,11.1,0,0,0-1.14-.14,12.33,12.33,0,0,0-1.36,0,6.32,6.32,0,0,0-.74.06c-.25,0-.51.06-.77.1-.52.08-1,.2-1.58.32l-1.61.36-1.62.35-1.56.33L32.82,62l-1.32.26-1.11.2-.87.15-.75.11s.28,0,.76,0,1.18-.1,2-.2,1.79-.24,2.81-.41,2.12-.38,3.21-.61c.54-.12,1.09-.23,1.62-.36s1-.25,1.55-.34a6.5,6.5,0,0,1,.75-.12l.36-.05.36,0c.46,0,.91-.06,1.32-.07s.79,0,1.12,0,.63.07.87.1l.55.11.19.06a.82.82,0,0,0-.18-.08A4.19,4.19,0,0,0,45.53,60.56Z"/><path class="cls-1" d="M46.11,37.54a9.12,9.12,0,0,0-2-.15,17.45,17.45,0,0,0-2.81.39c-1,.22-2.07.5-3.15.71S36,38.89,35,39s-2,.22-2.82.27-1.51.08-2,.09h-.76l.76,0c.49,0,1.18,0,2,0s1.8-.1,2.83-.22,2.12-.29,3.21-.51,2.14-.51,3.14-.73a17.44,17.44,0,0,1,2.78-.44,9.09,9.09,0,0,1,2,.08l.55.11.19,0-.19,0A3.92,3.92,0,0,0,46.11,37.54Z"/><path class="cls-1" d="M45.76,43.73a9.57,9.57,0,0,0-2-.15,13,13,0,0,0-1.34.1c-.47.06-1,.14-1.47.25-1,.21-2.07.49-3.15.71s-2.15.43-3.16.6-2,.28-2.79.37-1.51.14-2,.16l-.75,0h.76c.48,0,1.17,0,2-.1s1.79-.16,2.81-.32,2.1-.35,3.18-.57S40,44.29,41,44.08c.5-.11,1-.21,1.45-.27a10.7,10.7,0,0,1,1.32-.13,10.55,10.55,0,0,1,2,.08l.54.11.2,0-.19,0Z"/><path class="cls-1" d="M31.59,52c.82-.1,1.77-.24,2.79-.42s2.08-.41,3.15-.65,2.13-.52,3.13-.73c.5-.1,1-.19,1.45-.25s.91-.09,1.32-.11a11.16,11.16,0,0,1,2,.1,4.91,4.91,0,0,1,.54.1l.19,0L46,50.05l-.55-.13a11.19,11.19,0,0,0-2-.15c-.41,0-.86,0-1.33.07a13.77,13.77,0,0,0-1.48.24c-1,.2-2.07.48-3.14.71s-2.13.47-3.14.66-2,.36-2.76.47-1.5.2-2,.24l-.76.08.76,0C30.09,52.16,30.77,52.11,31.59,52Z"/><path class="cls-1" d="M31.32,58.33c.81-.13,1.75-.3,2.75-.52l3.13-.71c1.07-.24,2.12-.53,3.12-.73.5-.1,1-.19,1.45-.24s.91-.07,1.32-.08a12.13,12.13,0,0,1,2,.1,4.91,4.91,0,0,1,.54.1l.19,0-.19,0a3.82,3.82,0,0,0-.54-.12,10.88,10.88,0,0,0-2-.17c-.41,0-.86,0-1.33.06a13.5,13.5,0,0,0-1.48.21c-1,.2-2.06.48-3.13.72L34,57.67c-1,.22-1.93.42-2.73.57s-1.49.25-2,.31l-.75.11.75-.07C29.82,58.54,30.5,58.46,31.32,58.33Z"/><path class="cls-1" d="M55.94,37.49a17.44,17.44,0,0,1,2.78.44c1,.22,2.06.51,3.14.73s2.18.39,3.21.51,2,.18,2.83.22,1.52,0,2,0l.76,0h-.76c-.49,0-1.18,0-2-.09s-1.79-.14-2.82-.27-2.11-.3-3.18-.53-2.14-.49-3.15-.71A17.45,17.45,0,0,0,56,37.39a9.12,9.12,0,0,0-2,.15,3.92,3.92,0,0,0-.54.13l-.19,0,.19,0,.55-.11A9.09,9.09,0,0,1,55.94,37.49Z"/><path class="cls-1" d="M54.29,43.76a10.55,10.55,0,0,1,2-.08,10.7,10.7,0,0,1,1.32.13c.47.06.95.16,1.45.27,1,.21,2.06.5,3.14.73s2.16.42,3.18.57,2,.25,2.81.32,1.51.09,2,.1h.76l-.75,0c-.48,0-1.17-.08-2-.16s-1.77-.21-2.79-.37-2.09-.37-3.16-.6-2.13-.5-3.15-.71c-.5-.11-1-.19-1.47-.25a13,13,0,0,0-1.34-.1,9.57,9.57,0,0,0-2,.15l-.55.13-.19,0,.2,0Z"/><path class="cls-1" d="M68.47,51.92c-.81-.11-1.75-.28-2.76-.47s-2.08-.42-3.14-.66-2.13-.51-3.14-.71A14,14,0,0,0,58,49.84c-.48,0-.93-.07-1.34-.07a11.19,11.19,0,0,0-2,.15l-.55.13-.18.05.19,0a4.91,4.91,0,0,1,.54-.1,11.16,11.16,0,0,1,2-.1c.41,0,.85,0,1.32.11s1,.15,1.45.25c1,.21,2.06.5,3.13.73s2.14.46,3.15.65,2,.32,2.79.42,1.5.14,2,.18l.76,0-.76-.08C70,52.12,69.29,52,68.47,51.92Z"/><path class="cls-1" d="M68.75,58.24c-.8-.15-1.74-.35-2.73-.57l-3.12-.73c-1.07-.24-2.12-.52-3.13-.72A13.5,13.5,0,0,0,58.29,56C57.82,56,57.37,56,57,56a10.88,10.88,0,0,0-2,.17,3.82,3.82,0,0,0-.54.12l-.19,0,.19,0a4.91,4.91,0,0,1,.54-.1,12.13,12.13,0,0,1,2-.1c.41,0,.85,0,1.32.08s.95.14,1.45.24c1,.2,2.05.49,3.12.73l3.13.71c1,.22,1.94.39,2.75.52s1.5.21,2,.26l.75.07-.75-.11C70.24,58.49,69.56,58.38,68.75,58.24Z"/></svg>